<svg xmlns="http://www.w3.org/2000/svg" xmlns:xlink="http://www.w3.org/1999/xlink"><symbol id="arrow-down" viewBox="0 0 18 10"><g fill="none">
	<path d="M17 1L9 9L1 1" stroke="currentColor" stroke-width="2" stroke-linecap="round" stroke-linejoin="round"/>
</g></symbol><symbol id="arrow-left" viewBox="0 0 10 18"><g fill="none">
<path d="M9 17L1 9L9 1" stroke="currentColor" stroke-width="2" stroke-linecap="round" stroke-linejoin="round"/>
</g></symbol><symbol id="arrow-right" viewBox="0 0 10 18"><g fill="none">
<path d="M1 1L9 9L1 17" stroke="currentColor" stroke-width="2" stroke-linecap="round" stroke-linejoin="round"/>
</g></symbol><symbol id="arrow-up" viewBox="0 0 18 10"><g fill="none">
<path d="M1 9L9 1L17 9" stroke="currentColor" stroke-width="2" stroke-linecap="round" stroke-linejoin="round"/>
</g></symbol><symbol id="ok" viewBox="0 0 50 50"><path d="M 25 2 C 12.309534 2 2 12.309534 2 25 C 2 37.690466 12.309534 48 25 48 C 37.690466 48 48 37.690466 48 25 C 48 12.309534 37.690466 2 25 2 z M 25 4 C 36.609534 4 46 13.390466 46 25 C 46 36.609534 36.609534 46 25 46 C 13.390466 46 4 36.609534 4 25 C 4 13.390466 13.390466 4 25 4 z M 34.988281 14.988281 A 1.0001 1.0001 0 0 0 34.171875 15.439453 L 23.970703 30.476562 L 16.679688 23.710938 A 1.0001 1.0001 0 1 0 15.320312 25.177734 L 24.316406 33.525391 L 35.828125 16.560547 A 1.0001 1.0001 0 0 0 34.988281 14.988281 z" fill="currentColor"/></symbol><symbol id="add" viewBox="0 0 24 24"><g fill="none">
<path d="M6 12H18" stroke="currentColor" stroke-width="1.5" stroke-linecap="round" stroke-linejoin="round"/>
<path d="M12 18V6" stroke="currentColor" stroke-width="1.5" stroke-linecap="round" stroke-linejoin="round"/>
</g></symbol><symbol id="clear" viewBox="0 0 24 24"><g fill="none">
<path d="M12 22C17.5 22 22 17.5 22 12C22 6.5 17.5 2 12 2C6.5 2 2 6.5 2 12C2 17.5 6.5 22 12 22Z" stroke="currentColor" stroke-width="1.5" stroke-linecap="round" stroke-linejoin="round"/>
<path fill-rule="evenodd" clip-rule="evenodd" d="M15.3603 9.70037C15.6531 9.40748 15.6531 8.93261 15.3603 8.63971C15.0674 8.34682 14.5925 8.34682 14.2996 8.63971L11.9999 10.9394L9.70025 8.63971C9.40736 8.34682 8.93248 8.34682 8.63959 8.63971C8.3467 8.93261 8.3467 9.40748 8.63959 9.70037L10.9393 12L8.63959 14.2997C8.3467 14.5926 8.3467 15.0675 8.63959 15.3604C8.93248 15.6533 9.40736 15.6533 9.70025 15.3604L11.9999 13.0607L14.2996 15.3604C14.5925 15.6533 15.0674 15.6533 15.3603 15.3604C15.6531 15.0675 15.6531 14.5926 15.3603 14.2997L13.0606 12L15.3603 9.70037Z" fill="currentColor"/>
</g></symbol><symbol id="down" viewBox="0 0 18 9"><g fill="none">
<path d="M16.9201 0.950012L10.4001 7.47001C9.63008 8.24001 8.37008 8.24001 7.60008 7.47001L1.08008 0.950012" stroke="currentColor" stroke-width="1.5" stroke-miterlimit="10" stroke-linecap="round" stroke-linejoin="round"/>
</g></symbol><symbol id="facebook" viewBox="0 0 8 18"><g fill="none">
<path d="M1.78715 17.7761V8.92861H0.0270996V5.88422H1.78715V4.05311C1.78715 1.56771 2.78603 0.0811157 5.6163 0.0811157H7.97095V3.12551H6.49629C5.39035 3.12551 5.33091 3.55365 5.33091 4.35041V5.87261H7.99468L7.68548 8.91671H5.33091V17.7645L1.78715 17.7761Z" fill="currentColor"/>
</g></symbol><symbol id="instagram" viewBox="0 0 19 19"><g fill="none">
<path d="M14.1184 3.44776C14.7099 3.44776 15.1928 3.93047 15.2049 4.52195C15.2049 5.11343 14.722 5.59644 14.1305 5.60851C13.539 5.60851 13.0563 5.12551 13.0442 4.53403C13.0442 4.24433 13.1528 3.96683 13.358 3.7737C13.5632 3.55642 13.8408 3.43569 14.1184 3.44776ZM9.32629 6.32052C7.67256 6.29637 6.30851 7.61204 6.28437 9.26577C6.26023 10.9195 7.57597 12.2835 9.2297 12.3077C10.4609 12.3318 11.5836 11.5955 12.0543 10.4487C12.682 8.91569 11.9457 7.16542 10.4127 6.54979C10.0627 6.40494 9.70049 6.33259 9.32629 6.32052ZM9.32629 4.70319C11.8733 4.66698 13.9616 6.70671 13.9978 9.25369C14.034 11.8007 11.994 13.8891 9.44697 13.9253C6.89999 13.9615 4.81171 11.9215 4.7755 9.37452C4.75135 7.50351 5.8619 5.8135 7.57598 5.07717C8.13124 4.83575 8.72274 4.71526 9.32629 4.70319ZM10.2678 1.95096H8.3968L5.70499 1.999C5.13765 2.01107 4.57031 2.10765 4.03918 2.31286C3.25457 2.61463 2.63898 3.23044 2.3372 4.01506C2.14407 4.54618 2.03542 5.11338 2.02334 5.68072L1.97501 8.37253V10.2436L2.02334 12.9354C2.02334 13.5027 2.132 14.0702 2.3372 14.6014C2.63898 15.386 3.25457 16.0015 4.03918 16.3033C4.57031 16.4964 5.13765 16.605 5.70499 16.6171L9.33837 16.6655H9.59182L12.9597 16.6171C13.527 16.605 14.0944 16.5085 14.6255 16.3033C15.4101 16.0015 16.0257 15.386 16.3275 14.6014C16.5206 14.0702 16.6292 13.5027 16.6413 12.9354L16.6896 9.30202V9.04857L16.6413 5.68072C16.6413 5.11338 16.5327 4.54618 16.3275 4.01506C16.0257 3.23044 15.4101 2.61463 14.6255 2.31286C14.0944 2.11972 13.527 2.01107 12.9597 1.999L10.2678 1.95096ZM10.4489 0.333344L13.0321 0.381675C13.7805 0.393746 14.5168 0.538421 15.2169 0.803983C16.424 1.27475 17.3776 2.22856 17.8363 3.42359C18.1019 4.12371 18.2347 4.86011 18.2589 5.60851L18.3192 9.3141L18.2589 13.02C18.2468 13.7684 18.1019 14.5048 17.8363 15.2049C17.3656 16.412 16.412 17.3655 15.2049 17.8363C14.5047 18.1019 13.7684 18.2348 13.02 18.2589L10.2437 18.319H8.3968L5.62048 18.2589C4.87208 18.2468 4.13575 18.1019 3.43563 17.8363C2.22853 17.3655 1.27493 16.412 0.804161 15.2049C0.538599 14.5048 0.405847 13.7684 0.381705 13.02L0.333374 10.4369V8.20366L0.381705 5.6203C0.393776 4.8719 0.538599 4.13579 0.804161 3.43567C1.27493 2.22857 2.22853 1.27475 3.43563 0.803983C4.13575 0.538421 4.87208 0.405828 5.62048 0.393757L8.20369 0.345426H10.4489V0.333344Z" fill="currentColor"/>
</g></symbol><symbol id="left" viewBox="0 0 11 20"><g fill="none">
<path d="M9 17.92L2.48 11.4C1.71 10.63 1.71 9.36996 2.48 8.59996L9 2.07996" stroke="currentColor" stroke-width="3" stroke-miterlimit="10" stroke-linecap="round" stroke-linejoin="round"/>
</g></symbol><symbol id="more" viewBox="0 0 20 9"><g fill="none">
<path d="M15.28 8.10285L19 4.55139L15.28 1" stroke="currentColor" stroke-width="1.5" stroke-linecap="round" stroke-linejoin="round"/>
<path d="M1 4.55139H19" stroke="currentColor" stroke-width="1.5" stroke-linecap="round" stroke-linejoin="round"/>
</g></symbol><symbol id="odnoklasniki" viewBox="0 0 18 18"><g fill="none">
<path d="M14.0778 9.58274C13.8281 9.07139 13.1265 8.65518 12.1989 9.38058C10.2248 10.7006 7.63241 10.7006 5.65836 9.38058C4.73079 8.64328 4.02916 9.07139 3.77943 9.58274C3.33943 10.4627 3.83888 10.9027 4.95672 11.6163C5.91996 12.1514 6.97835 12.4725 8.08429 12.5557L4.74268 15.9092C4.33835 16.3136 4.33835 16.9557 4.74268 17.36L4.86158 17.479C5.25402 17.8833 5.90808 17.8833 6.30051 17.479L8.92863 14.839L11.5686 17.479C11.973 17.8833 12.6151 17.8833 13.0194 17.479L13.1383 17.36C13.5427 16.9557 13.5427 16.3136 13.1383 15.9092L9.79673 12.5557C10.8908 12.4725 11.9492 12.1633 12.9005 11.6281C14.0184 10.9027 14.5178 10.4746 14.0778 9.58274Z" fill="currentColor"/>
<path d="M8.8812 0.0810547C6.40768 0.0810547 4.39795 2.07889 4.39795 4.55241C4.39795 4.55241 4.39795 4.55241 4.39795 4.5643C4.39795 7.03781 6.3958 9.04754 8.86931 9.04754C11.3428 9.04754 13.3526 7.0497 13.3526 4.57619C13.3645 2.10268 11.3547 0.0929466 8.8812 0.0810547ZM8.86931 6.71673C7.7158 6.71673 6.78823 5.78916 6.78823 4.63565C6.78823 3.48214 7.7158 2.55457 8.86931 2.55457C10.0228 2.55457 10.9504 3.48214 10.9504 4.63565C10.9504 5.78916 10.0228 6.71673 8.86931 6.71673Z" fill="currentColor"/>
</g></symbol><symbol id="play" viewBox="0 0 62 62"><g fill="none">
<g opacity="0.8">
<path d="M30.9705 0C13.8593 0 0 13.8593 0 30.9705C0 48.0816 13.8593 61.9409 30.9705 61.9409C48.0816 61.9409 61.9409 48.0816 61.9409 30.9705C61.9409 13.8593 48.0816 0 30.9705 0ZM23.2278 21.0908C23.2278 18.6947 25.8983 17.2655 27.8919 18.5946L42.7115 28.4743C44.4927 29.6618 44.4927 32.2791 42.7115 33.4666L27.8919 43.3463C25.8983 44.6754 23.2278 43.2462 23.2278 40.8501V21.0908Z" fill="white"/>
</g>
</g></symbol><symbol id="right" viewBox="0 0 11 20"><g fill="none">
<path d="M2.00003 2.08004L8.52003 8.60004C9.29003 9.37004 9.29003 10.63 8.52003 11.4L2.00003 17.92" stroke="currentColor" stroke-width="3" stroke-miterlimit="10" stroke-linecap="round" stroke-linejoin="round"/>
</g></symbol><symbol id="search" viewBox="0 0 31 29"><g fill="none">
<path d="M26.1292 23.2347L21.8395 19.1514C23.2235 17.4681 23.9745 15.3894 23.9717 13.2494C23.9717 11.3436 23.3797 9.4806 22.2707 7.89598C21.1616 6.31136 19.5852 5.0763 17.7409 4.34698C15.8966 3.61765 13.8672 3.42683 11.9093 3.79864C9.95135 4.17044 8.15289 5.08817 6.74131 6.43579C5.32973 7.7834 4.36843 9.50036 3.97898 11.3695C3.58953 13.2387 3.78941 15.1762 4.55335 16.9369C5.31729 18.6977 6.61098 20.2026 8.27082 21.2614C9.93066 22.3202 11.8821 22.8854 13.8784 22.8854C16.1199 22.888 18.2973 22.1711 20.0605 20.8498L24.3376 24.945C24.4549 25.0579 24.5944 25.1475 24.7482 25.2087C24.9019 25.2698 25.0668 25.3013 25.2334 25.3013C25.3999 25.3013 25.5648 25.2698 25.7186 25.2087C25.8723 25.1475 26.0119 25.0579 26.1292 24.945C26.2474 24.8331 26.3413 24.6999 26.4053 24.5531C26.4694 24.4063 26.5024 24.2489 26.5024 24.0899C26.5024 23.9308 26.4694 23.7734 26.4053 23.6266C26.3413 23.4799 26.2474 23.3466 26.1292 23.2347ZM6.30837 13.2494C6.30837 11.8201 6.75234 10.4228 7.58415 9.23434C8.41595 8.04588 9.59822 7.11958 10.9815 6.57259C12.3647 6.0256 13.8868 5.88248 15.3552 6.16133C16.8236 6.44019 18.1725 7.12849 19.2312 8.13919C20.2899 9.1499 21.0108 10.4376 21.3029 11.8395C21.595 13.2414 21.4451 14.6945 20.8721 16.0151C20.2992 17.3356 19.3289 18.4643 18.084 19.2584C16.8392 20.0525 15.3756 20.4764 13.8784 20.4764C11.8707 20.4764 9.94522 19.715 8.52557 18.3597C7.10592 17.0043 6.30837 15.1661 6.30837 13.2494Z" fill="currentColor"/>
</g></symbol><symbol id="telegram" viewBox="0 0 19 15"><g fill="none">
<path d="M17.4511 0.459457C17.5938 0.471349 17.7364 0.530681 17.8554 0.625816C17.9862 0.720951 18.0576 0.887577 18.0457 1.06596L15.2273 13.7783C15.1678 14.1826 14.7992 14.4681 14.3949 14.4324C14.2165 14.4324 14.05 14.3847 13.8954 14.2777L9.7808 11.4237L7.47377 13.4691C7.35485 13.5643 7.21211 13.6236 7.06941 13.6236C6.7959 13.6474 6.5343 13.493 6.42727 13.2432L4.79809 8.58142L0.754819 7.39223C0.457522 7.33277 0.279184 7.03572 0.350535 6.75031C0.398103 6.54815 0.552657 6.38156 0.754819 6.34589L17.4511 0.459457Z" fill="currentColor"/>
</g></symbol><symbol id="tick" viewBox="0 0 15 10"><g fill="none">
<path d="M1 5L5.32824 9L14 1" stroke="#292D32" stroke-width="2" stroke-linecap="round" stroke-linejoin="round"/>
</g></symbol><symbol id="twitter" viewBox="0 0 18 16"><g fill="none">
<path d="M15.8844 2.81429C16.6574 2.33861 17.2282 1.60131 17.4779 0.733204C16.7644 1.1732 15.9915 1.48242 15.171 1.6489C14.505 0.87593 13.5417 0.447822 12.519 0.459714C10.4736 0.49539 8.85633 2.18424 8.89201 4.22964C8.89201 4.51505 8.9277 4.80042 8.98716 5.08582C6.03797 4.91934 3.31468 3.48035 1.50712 1.14954C0.543873 2.86197 1.03144 5.02627 2.62496 6.17978C2.04225 6.156 1.48333 6.00152 0.98387 5.70423V5.75155C0.960086 7.51155 2.17307 9.05761 3.8974 9.43815C3.58821 9.52139 3.26713 9.56909 2.93416 9.56909C2.70821 9.56909 2.47037 9.54524 2.25631 9.49767C2.7082 11.0079 4.07581 12.0663 5.64554 12.1138C4.385 13.1722 2.77955 13.7431 1.13847 13.7193C0.853065 13.7193 0.555791 13.7074 0.270386 13.6717C1.91147 14.7896 3.84984 15.3722 5.83578 15.3603C12.519 15.3603 16.1817 9.6284 16.1817 4.65759C16.1817 4.4911 16.1817 4.33661 16.1698 4.17012C16.8834 3.63499 17.4899 2.96888 17.9774 2.21969C17.3115 2.51699 16.6099 2.71915 15.8844 2.81429Z" fill="currentColor"/>
</g></symbol><symbol id="vk" viewBox="0 0 18 12"><g fill="none">
<path d="M17.3125 1.56357C17.4433 1.14736 17.3125 0.850233 16.7298 0.850233H14.8033C14.4346 0.826449 14.1017 1.05235 13.959 1.39721C13.3525 2.81235 12.5558 4.14432 11.5806 5.3454C11.1287 5.79729 10.9266 5.94 10.6768 5.94C10.546 5.94 10.3795 5.78544 10.3795 5.38111V1.55167C10.3795 1.0641 10.2249 0.838329 9.82057 0.838329H6.80005C6.53843 0.826437 6.32441 1.02845 6.31252 1.27818C6.31252 1.27818 6.31252 1.27819 6.31252 1.29008C6.31252 1.75387 7.0022 1.87289 7.08545 3.181V6.02303C7.08545 6.64141 6.97843 6.74856 6.7287 6.74856C6.07465 6.74856 4.48113 4.33441 3.52978 1.58738C3.33951 1.04035 3.16117 0.838329 2.6736 0.838329H0.735216C0.176297 0.838329 0.0811768 1.0999 0.0811768 1.38531C0.592528 3.72801 1.63901 5.92788 3.1255 7.79491C4.39793 9.85221 6.59787 11.1725 9.01193 11.3271C10.2487 11.3271 10.3914 11.0415 10.3914 10.5777V8.84155C10.3914 8.28263 10.4984 8.18744 10.8909 8.18744C11.1763 8.18744 11.6757 8.34209 12.8173 9.43614C14.1255 10.7443 14.3514 11.339 15.0768 11.339H17.0033C17.5622 11.339 17.8239 11.0533 17.6812 10.5182C17.2649 9.68577 16.7179 8.91291 16.052 8.25886C15.6001 7.74751 14.9341 7.15302 14.7201 6.8795C14.4347 6.51085 14.5179 6.3679 14.7201 6.02303C15.7309 4.61979 16.599 3.1333 17.3125 1.56357Z" fill="currentColor"/>
</g></symbol></svg>