<svg width="24" height="24" viewBox="0 0 24 24" fill="none" xmlns="http://www.w3.org/2000/svg">
<path d="M12 22C17.5 22 22 17.5 22 12C22 6.5 17.5 2 12 2C6.5 2 2 6.5 2 12C2 17.5 6.5 22 12 22Z" stroke="currentColor" stroke-width="1.5" stroke-linecap="round" stroke-linejoin="round"/>
<path fill-rule="evenodd" clip-rule="evenodd" d="M15.3603 9.70037C15.6531 9.40748 15.6531 8.93261 15.3603 8.63971C15.0674 8.34682 14.5925 8.34682 14.2996 8.63971L11.9999 10.9394L9.70025 8.63971C9.40736 8.34682 8.93248 8.34682 8.63959 8.63971C8.3467 8.93261 8.3467 9.40748 8.63959 9.70037L10.9393 12L8.63959 14.2997C8.3467 14.5926 8.3467 15.0675 8.63959 15.3604C8.93248 15.6533 9.40736 15.6533 9.70025 15.3604L11.9999 13.0607L14.2996 15.3604C14.5925 15.6533 15.0674 15.6533 15.3603 15.3604C15.6531 15.0675 15.6531 14.5926 15.3603 14.2997L13.0606 12L15.3603 9.70037Z" fill="currentColor"/>
</svg>
