<svg width="19" height="19" viewBox="0 0 19 19" fill="none" xmlns="http://www.w3.org/2000/svg">
<path d="M14.1184 3.44776C14.7099 3.44776 15.1928 3.93047 15.2049 4.52195C15.2049 5.11343 14.722 5.59644 14.1305 5.60851C13.539 5.60851 13.0563 5.12551 13.0442 4.53403C13.0442 4.24433 13.1528 3.96683 13.358 3.7737C13.5632 3.55642 13.8408 3.43569 14.1184 3.44776ZM9.32629 6.32052C7.67256 6.29637 6.30851 7.61204 6.28437 9.26577C6.26023 10.9195 7.57597 12.2835 9.2297 12.3077C10.4609 12.3318 11.5836 11.5955 12.0543 10.4487C12.682 8.91569 11.9457 7.16542 10.4127 6.54979C10.0627 6.40494 9.70049 6.33259 9.32629 6.32052ZM9.32629 4.70319C11.8733 4.66698 13.9616 6.70671 13.9978 9.25369C14.034 11.8007 11.994 13.8891 9.44697 13.9253C6.89999 13.9615 4.81171 11.9215 4.7755 9.37452C4.75135 7.50351 5.8619 5.8135 7.57598 5.07717C8.13124 4.83575 8.72274 4.71526 9.32629 4.70319ZM10.2678 1.95096H8.3968L5.70499 1.999C5.13765 2.01107 4.57031 2.10765 4.03918 2.31286C3.25457 2.61463 2.63898 3.23044 2.3372 4.01506C2.14407 4.54618 2.03542 5.11338 2.02334 5.68072L1.97501 8.37253V10.2436L2.02334 12.9354C2.02334 13.5027 2.132 14.0702 2.3372 14.6014C2.63898 15.386 3.25457 16.0015 4.03918 16.3033C4.57031 16.4964 5.13765 16.605 5.70499 16.6171L9.33837 16.6655H9.59182L12.9597 16.6171C13.527 16.605 14.0944 16.5085 14.6255 16.3033C15.4101 16.0015 16.0257 15.386 16.3275 14.6014C16.5206 14.0702 16.6292 13.5027 16.6413 12.9354L16.6896 9.30202V9.04857L16.6413 5.68072C16.6413 5.11338 16.5327 4.54618 16.3275 4.01506C16.0257 3.23044 15.4101 2.61463 14.6255 2.31286C14.0944 2.11972 13.527 2.01107 12.9597 1.999L10.2678 1.95096ZM10.4489 0.333344L13.0321 0.381675C13.7805 0.393746 14.5168 0.538421 15.2169 0.803983C16.424 1.27475 17.3776 2.22856 17.8363 3.42359C18.1019 4.12371 18.2347 4.86011 18.2589 5.60851L18.3192 9.3141L18.2589 13.02C18.2468 13.7684 18.1019 14.5048 17.8363 15.2049C17.3656 16.412 16.412 17.3655 15.2049 17.8363C14.5047 18.1019 13.7684 18.2348 13.02 18.2589L10.2437 18.319H8.3968L5.62048 18.2589C4.87208 18.2468 4.13575 18.1019 3.43563 17.8363C2.22853 17.3655 1.27493 16.412 0.804161 15.2049C0.538599 14.5048 0.405847 13.7684 0.381705 13.02L0.333374 10.4369V8.20366L0.381705 5.6203C0.393776 4.8719 0.538599 4.13579 0.804161 3.43567C1.27493 2.22857 2.22853 1.27475 3.43563 0.803983C4.13575 0.538421 4.87208 0.405828 5.62048 0.393757L8.20369 0.345426H10.4489V0.333344Z" fill="currentColor"/>
</svg>
