<svg width="19" height="15" viewBox="0 0 19 15" fill="none" xmlns="http://www.w3.org/2000/svg">
<path d="M17.4511 0.459457C17.5938 0.471349 17.7364 0.530681 17.8554 0.625816C17.9862 0.720951 18.0576 0.887577 18.0457 1.06596L15.2273 13.7783C15.1678 14.1826 14.7992 14.4681 14.3949 14.4324C14.2165 14.4324 14.05 14.3847 13.8954 14.2777L9.7808 11.4237L7.47377 13.4691C7.35485 13.5643 7.21211 13.6236 7.06941 13.6236C6.7959 13.6474 6.5343 13.493 6.42727 13.2432L4.79809 8.58142L0.754819 7.39223C0.457522 7.33277 0.279184 7.03572 0.350535 6.75031C0.398103 6.54815 0.552657 6.38156 0.754819 6.34589L17.4511 0.459457Z" fill="currentColor"/>
</svg>
