<svg width="18" height="16" viewBox="0 0 18 16" fill="none" xmlns="http://www.w3.org/2000/svg">
<path d="M15.8844 2.81429C16.6574 2.33861 17.2282 1.60131 17.4779 0.733204C16.7644 1.1732 15.9915 1.48242 15.171 1.6489C14.505 0.87593 13.5417 0.447822 12.519 0.459714C10.4736 0.49539 8.85633 2.18424 8.89201 4.22964C8.89201 4.51505 8.9277 4.80042 8.98716 5.08582C6.03797 4.91934 3.31468 3.48035 1.50712 1.14954C0.543873 2.86197 1.03144 5.02627 2.62496 6.17978C2.04225 6.156 1.48333 6.00152 0.98387 5.70423V5.75155C0.960086 7.51155 2.17307 9.05761 3.8974 9.43815C3.58821 9.52139 3.26713 9.56909 2.93416 9.56909C2.70821 9.56909 2.47037 9.54524 2.25631 9.49767C2.7082 11.0079 4.07581 12.0663 5.64554 12.1138C4.385 13.1722 2.77955 13.7431 1.13847 13.7193C0.853065 13.7193 0.555791 13.7074 0.270386 13.6717C1.91147 14.7896 3.84984 15.3722 5.83578 15.3603C12.519 15.3603 16.1817 9.6284 16.1817 4.65759C16.1817 4.4911 16.1817 4.33661 16.1698 4.17012C16.8834 3.63499 17.4899 2.96888 17.9774 2.21969C17.3115 2.51699 16.6099 2.71915 15.8844 2.81429Z" fill="currentColor"/>
</svg>
