<svg width="18" height="12" viewBox="0 0 18 12" fill="none" xmlns="http://www.w3.org/2000/svg">
<path d="M17.3125 1.56357C17.4433 1.14736 17.3125 0.850233 16.7298 0.850233H14.8033C14.4346 0.826449 14.1017 1.05235 13.959 1.39721C13.3525 2.81235 12.5558 4.14432 11.5806 5.3454C11.1287 5.79729 10.9266 5.94 10.6768 5.94C10.546 5.94 10.3795 5.78544 10.3795 5.38111V1.55167C10.3795 1.0641 10.2249 0.838329 9.82057 0.838329H6.80005C6.53843 0.826437 6.32441 1.02845 6.31252 1.27818C6.31252 1.27818 6.31252 1.27819 6.31252 1.29008C6.31252 1.75387 7.0022 1.87289 7.08545 3.181V6.02303C7.08545 6.64141 6.97843 6.74856 6.7287 6.74856C6.07465 6.74856 4.48113 4.33441 3.52978 1.58738C3.33951 1.04035 3.16117 0.838329 2.6736 0.838329H0.735216C0.176297 0.838329 0.0811768 1.0999 0.0811768 1.38531C0.592528 3.72801 1.63901 5.92788 3.1255 7.79491C4.39793 9.85221 6.59787 11.1725 9.01193 11.3271C10.2487 11.3271 10.3914 11.0415 10.3914 10.5777V8.84155C10.3914 8.28263 10.4984 8.18744 10.8909 8.18744C11.1763 8.18744 11.6757 8.34209 12.8173 9.43614C14.1255 10.7443 14.3514 11.339 15.0768 11.339H17.0033C17.5622 11.339 17.8239 11.0533 17.6812 10.5182C17.2649 9.68577 16.7179 8.91291 16.052 8.25886C15.6001 7.74751 14.9341 7.15302 14.7201 6.8795C14.4347 6.51085 14.5179 6.3679 14.7201 6.02303C15.7309 4.61979 16.599 3.1333 17.3125 1.56357Z" fill="currentColor"/>
</svg>
