<svg width="18" height="18" viewBox="0 0 18 18" fill="none" xmlns="http://www.w3.org/2000/svg">
<path d="M14.0778 9.58274C13.8281 9.07139 13.1265 8.65518 12.1989 9.38058C10.2248 10.7006 7.63241 10.7006 5.65836 9.38058C4.73079 8.64328 4.02916 9.07139 3.77943 9.58274C3.33943 10.4627 3.83888 10.9027 4.95672 11.6163C5.91996 12.1514 6.97835 12.4725 8.08429 12.5557L4.74268 15.9092C4.33835 16.3136 4.33835 16.9557 4.74268 17.36L4.86158 17.479C5.25402 17.8833 5.90808 17.8833 6.30051 17.479L8.92863 14.839L11.5686 17.479C11.973 17.8833 12.6151 17.8833 13.0194 17.479L13.1383 17.36C13.5427 16.9557 13.5427 16.3136 13.1383 15.9092L9.79673 12.5557C10.8908 12.4725 11.9492 12.1633 12.9005 11.6281C14.0184 10.9027 14.5178 10.4746 14.0778 9.58274Z" fill="currentColor"/>
<path d="M8.8812 0.0810547C6.40768 0.0810547 4.39795 2.07889 4.39795 4.55241C4.39795 4.55241 4.39795 4.55241 4.39795 4.5643C4.39795 7.03781 6.3958 9.04754 8.86931 9.04754C11.3428 9.04754 13.3526 7.0497 13.3526 4.57619C13.3645 2.10268 11.3547 0.0929466 8.8812 0.0810547ZM8.86931 6.71673C7.7158 6.71673 6.78823 5.78916 6.78823 4.63565C6.78823 3.48214 7.7158 2.55457 8.86931 2.55457C10.0228 2.55457 10.9504 3.48214 10.9504 4.63565C10.9504 5.78916 10.0228 6.71673 8.86931 6.71673Z" fill="currentColor"/>
</svg>
