<svg width="31" height="29" viewBox="0 0 31 29" fill="none" xmlns="http://www.w3.org/2000/svg">
<path d="M26.1292 23.2347L21.8395 19.1514C23.2235 17.4681 23.9745 15.3894 23.9717 13.2494C23.9717 11.3436 23.3797 9.4806 22.2707 7.89598C21.1616 6.31136 19.5852 5.0763 17.7409 4.34698C15.8966 3.61765 13.8672 3.42683 11.9093 3.79864C9.95135 4.17044 8.15289 5.08817 6.74131 6.43579C5.32973 7.7834 4.36843 9.50036 3.97898 11.3695C3.58953 13.2387 3.78941 15.1762 4.55335 16.9369C5.31729 18.6977 6.61098 20.2026 8.27082 21.2614C9.93066 22.3202 11.8821 22.8854 13.8784 22.8854C16.1199 22.888 18.2973 22.1711 20.0605 20.8498L24.3376 24.945C24.4549 25.0579 24.5944 25.1475 24.7482 25.2087C24.9019 25.2698 25.0668 25.3013 25.2334 25.3013C25.3999 25.3013 25.5648 25.2698 25.7186 25.2087C25.8723 25.1475 26.0119 25.0579 26.1292 24.945C26.2474 24.8331 26.3413 24.6999 26.4053 24.5531C26.4694 24.4063 26.5024 24.2489 26.5024 24.0899C26.5024 23.9308 26.4694 23.7734 26.4053 23.6266C26.3413 23.4799 26.2474 23.3466 26.1292 23.2347ZM6.30837 13.2494C6.30837 11.8201 6.75234 10.4228 7.58415 9.23434C8.41595 8.04588 9.59822 7.11958 10.9815 6.57259C12.3647 6.0256 13.8868 5.88248 15.3552 6.16133C16.8236 6.44019 18.1725 7.12849 19.2312 8.13919C20.2899 9.1499 21.0108 10.4376 21.3029 11.8395C21.595 13.2414 21.4451 14.6945 20.8721 16.0151C20.2992 17.3356 19.3289 18.4643 18.084 19.2584C16.8392 20.0525 15.3756 20.4764 13.8784 20.4764C11.8707 20.4764 9.94522 19.715 8.52557 18.3597C7.10592 17.0043 6.30837 15.1661 6.30837 13.2494Z" fill="currentColor"/>
</svg>
